<svg width="960" height="720" viewBox="0 0 960 720" fill="none" xmlns="http://www.w3.org/2000/svg">
  <rect width="960" height="720" rx="40" fill="#F8FAFC"/>
  <rect x="168" y="58" width="624" height="604" rx="24" fill="white"/>
  <rect x="218" y="112" width="250" height="16" rx="8" fill="#0F172A"/>
  <rect x="218" y="142" width="156" height="10" rx="5" fill="#64748B"/>
  <rect x="218" y="186" width="524" height="1.5" fill="#E2E8F0"/>
  <rect x="218" y="220" width="104" height="10" rx="5" fill="#334155"/>
  <rect x="218" y="246" width="224" height="10" rx="5" fill="#CBD5E1"/>
  <rect x="218" y="268" width="506" height="10" rx="5" fill="#E2E8F0"/>
  <rect x="218" y="322" width="104" height="10" rx="5" fill="#334155"/>
  <rect x="218" y="350" width="506" height="10" rx="5" fill="#CBD5E1"/>
  <rect x="218" y="372" width="470" height="10" rx="5" fill="#E2E8F0"/>
  <rect x="218" y="394" width="442" height="10" rx="5" fill="#E2E8F0"/>
  <rect x="218" y="448" width="104" height="10" rx="5" fill="#334155"/>
  <rect x="218" y="476" width="210" height="74" rx="14" fill="#F8FAFC"/>
  <rect x="446" y="476" width="278" height="74" rx="14" fill="#F8FAFC"/>
  <rect x="218" y="584" width="104" height="10" rx="5" fill="#334155"/>
  <rect x="218" y="612" width="506" height="10" rx="5" fill="#CBD5E1"/>
</svg>
