<svg width="960" height="720" viewBox="0 0 960 720" fill="none" xmlns="http://www.w3.org/2000/svg">
  <rect width="960" height="720" rx="40" fill="#F4F7FB"/>
  <rect x="150" y="58" width="660" height="604" rx="20" fill="white"/>
  <rect x="150" y="58" width="660" height="604" rx="20" stroke="#CBD5E1" stroke-width="4"/>
  <rect x="260" y="106" width="440" height="18" rx="9" fill="#0F172A"/>
  <rect x="338" y="136" width="284" height="10" rx="5" fill="#64748B"/>
  <rect x="228" y="180" width="504" height="2" fill="#CBD5E1"/>
  <rect x="210" y="216" width="116" height="10" rx="5" fill="#0F172A"/>
  <rect x="210" y="240" width="540" height="9" rx="4.5" fill="#CBD5E1"/>
  <rect x="210" y="262" width="516" height="9" rx="4.5" fill="#E2E8F0"/>
  <rect x="210" y="304" width="116" height="10" rx="5" fill="#0F172A"/>
  <rect x="210" y="334" width="220" height="74" rx="12" fill="#F8FAFC"/>
  <rect x="444" y="334" width="306" height="74" rx="12" fill="#F8FAFC"/>
  <rect x="210" y="432" width="116" height="10" rx="5" fill="#0F172A"/>
  <rect x="210" y="462" width="540" height="9" rx="4.5" fill="#CBD5E1"/>
  <rect x="210" y="484" width="524" height="9" rx="4.5" fill="#E2E8F0"/>
  <rect x="210" y="528" width="116" height="10" rx="5" fill="#0F172A"/>
  <rect x="210" y="558" width="250" height="44" rx="10" fill="#F8FAFC"/>
  <rect x="480" y="558" width="270" height="44" rx="10" fill="#F8FAFC"/>
</svg>
